<?xml version="1.0" standalone="yes"?>
<svg xmlns="http://www.w3.org/2000/svg" width="226" height="84">
  <path style="fill:#ffffff; stroke:none;" d="M0 0L0 24L1 24C8.58505 9.50931 21.6857 16.1814 34 18C34.4014 10.2615 38.4833 3.55704 46 1C34.0611 -4.00977 13.0035 0 0 0z" />
  <path style="fill:#21b3e3; stroke:none;" d="M34 18C28.3748 16.6986 22.8497 14.2729 17 14.1289C-0.934984 13.6872 -2.91359 32.099 3.26235 45C10.2669 59.6319 24.0897 72.5371 40 76.841C54.6542 80.8052 67.6263 74.5729 65.8264 58C65.334 53.4657 63.4457 49.2805 62 45C48.2878 47.5457 30.2267 47.1438 18.0154 39.6474C2.83646 30.3292 25.4973 21.6945 34 21C34.552 44.4778 64.824 43.1808 64.9954 20C65.1706 -3.69218 34.5715 -6.3099 34 18z" />
  <path style="fill:#ffffff; stroke:none;" d="M53 0L53 1C82.0765 10.8913 52.1483 57.3991 36.3673 29.9961C34.7072 27.1135 34.1693 24.2625 34 21C26.4987 21.327 2.6047 29.1324 16.1088 39.034C27.4534 47.3521 48.7721 48.1493 62 45C63.5827 51.6819 66.8931 57.9101 65.7863 65C63.7301 78.1701 49.3206 79.6319 39 76.2508C22.5461 70.8603 4.14678 54.6531 1 37L0 37L0 84L90 84C102.315 84 118.979 86.9814 130.843 83.7824C137.203 82.0674 133.674 71.3661 129 70L131 79L125 79L123 70L124 74L117 74L117 75L123 75L123 79L112 76L107 79L107 67L112 67L111 75L112 75C113.637 66.9133 122.615 66.5915 129 63L129 67L136 67L137 71L147 67L147 71L143 69L142 69L138 84L226 84L226 37L221 37L226 0L53 0z" />
  <path style="fill:#21b3e3; stroke:none;" d="M73 1L73 17L78 17L78 1L73 1M80 1L80 17L90 17L90 13L84 10L89 11L90 7L84 7L84 5L90 5L90 1L80 1M91 1L91 17L102 17L102 13L96 10L101 11L101 7L96 7L96 5L102 5L102 1L91 1M103 1L103 17L113 17L113 13L108 10L113 11L113 7L108 7L108 5L113 5L113 1L103 1z" />
  <path style="fill:#13110d; stroke:none;" d="M146 37L153 37L151 20C142.047 23.2267 145.92 29.7619 146 37M168 37L175 37L173 20C164.047 23.2267 167.92 29.7619 168 37M177 37L182 37C182 34.504 183.471 18.9398 178.389 20.7508C174.972 21.9684 177 33.8951 177 37M225 20C219.489 24.1417 221 30.6974 221 37L226 37L225 20M86 32L79 33L78 26L81 28L86 27C84.09 18.052 72.4815 20.1488 72.1489 29.0008C71.8274 37.5587 83.5105 40.2007 86 32M89.3179 26.0285C83.5308 29.8397 89.2621 40.1994 95.6821 35.9715C101.469 32.1603 95.7378 21.8006 89.3179 26.0285M100 25L100 37L105 37L105 29L106 29L106 37L111 37L111 29L112 29L112 37L117 37C117 23.7475 111.847 25 100 25M119 25L119 41L124 37C128.865 36.621 133.434 30.0181 128.397 26.0278C126.129 24.2312 121.703 25.0003 119 25M131 25C131.027 34.8107 133.336 36.9989 143 37L143 25L138 25L138 33L137 33L136 25L131 25M155 25C154.228 34.7765 154.588 36.9989 165 37C165 28.0078 164.62 25.0074 155 25M185.434 26.0278C179.248 30.272 186.075 40.4265 192.566 35.9722C198.752 31.728 191.925 21.5735 185.434 26.0278M196 25L196 37L201 37L201 29L202 29L203 37L207 37C207 27.258 206.055 25.0011 196 25M209 26C210.034 35.2438 209.89 36.9989 220 37C219.999 28.7517 218.588 23.1734 209 26z" />
  <path style="fill:#ffffff; stroke:none;" d="M159 28L160 29L159 28M213 28L214 29L213 28M92 29L92 33L93 33L92 29M124 29L124 33L125 33L124 29M188 29L188 33L190 33L190 29L188 29M159 32L160 33L159 32M214 32L215 33L214 32z" />
  <path style="fill:#13110d; stroke:none;" d="M73 42L73 59L78 59L78 42L73 42M102 55C105.41 58.7848 108.134 59.1414 113 58C112.71 52.369 108.963 39.1876 103 50L102 50L102 46L99 46L99 42C87.5483 44.4768 95.8953 64.9124 102 55M115 59L120 59L120 42C112.658 43.6022 115 53.0199 115 59M122 59L126 59L126 42C119.877 44.4614 122 53.4207 122 59M128 42L128 59L133 59L134 43L128 42M80 46L80 59L85 59L85 51L87 51L87 59L92 59C91.9989 48.8026 90.4643 46.0012 80 46M146 46C143.537 46.0019 140.461 45.5903 138.148 46.6034C127.17 51.4111 145.63 73.3629 145.995 54C146.046 51.3352 146 48.6653 146 46M158 58C157.972 55.9733 158.32 53.8433 158.151 51.8333C156.862 36.4556 137.709 57.4333 152.991 58.7616C154.702 58.9103 156.362 58.3843 158 58M160 46L160 59L165 59L165 50L166 50L166 59L171 59C171 49.041 170.513 46.0012 160 46M177 51C178.731 51.1506 183.847 50.7311 181.248 47.5841C177.075 42.5302 170.917 50.2297 172.758 54.8912C173.894 57.7692 181.741 61.1122 181.794 56.0347C181.814 54.1249 178.049 52.5258 177 51M195 58L193 55C195.961 50.5733 191.823 43.4887 186.318 47.0324C177.232 52.8807 188.899 59.1152 195 58z" />
  <path style="fill:#ffffff; stroke:none;" d="M99 50L99 54L102 54L102 50L99 50M107.667 50.3333L108.333 50.6667L107.667 50.3333M140 50L140 54L141 54L140 50M152.667 50.3333L153.333 50.6667L152.667 50.3333M188.667 50.3333L189.333 50.6667L188.667 50.3333M108.667 54.3333L109.333 54.6667L108.667 54.3333M153.667 54.3333L154.333 54.6667L153.667 54.3333M189.667 54.3333L190.333 54.6667L189.667 54.3333z" />
  <path style="fill:#21b3e3; stroke:none;" d="M107 62L107 66L111 66L111 62L107 62M79 74L79 75L73 74L73 79C76.9871 78.9969 80.6677 79.5976 83 76C87.6803 79.3666 93.9792 80.6567 96 74L97 74C98.4275 78.7024 101.461 78.9464 106 79L106 75C102.007 74.5383 102.064 71.4898 106 71L106 67C101.461 67.0536 98.4275 67.2976 97 72L96 72C93.9834 65.3571 86.2898 65.7721 84 72L77 68L77 67L83 68C81.2942 57.7786 65.9057 68.0474 79 74M112 75L111 75L112 67L107 67L107 79C109.993 78.9358 111.346 79.0539 112 76L123 79L123 75L117 75L117 74L124 74L123 70L125 79L131 79L129 70C134.106 73.1119 134.137 78.6969 133 84L138 84L142 69L143 69L147 71L147 67C142.43 67.0162 139.697 67.0425 137 71L136 67L129 67L129 63C122.444 65.4674 112.872 67.1982 112 75z" />
  <path style="fill:#ffffff; stroke:none;" d="M89 70L89 76C91.7166 74.0235 91.7166 71.9766 89 70M117.667 70.3333L118.333 70.6667L117.667 70.3333z" />
</svg>